<svg width="44" height="44" viewBox="0 0 44 44" fill="none" xmlns="http://www.w3.org/2000/svg">
<path d="M32.9998 20.1667C32.9998 21.395 32.9998 22.605 32.9998 23.8334C35.1998 23.8334 38.0598 23.8334 40.3332 23.8334C40.3332 22.605 40.3332 21.395 40.3332 20.1667C38.0598 20.1667 35.1998 20.1667 32.9998 20.1667Z" fill="#0B121B"/>
<path d="M29.3332 32.285C31.0932 33.5867 33.3848 35.31 35.1998 36.6667C35.9332 35.695 36.6665 34.705 37.3998 33.7334C35.5848 32.3767 33.2932 30.6534 31.5332 29.3334C30.7998 30.3234 30.0665 31.3134 29.3332 32.285Z" fill="#0B121B"/>
<path d="M37.3998 10.2667C36.6665 9.29504 35.9332 8.30504 35.1998 7.33337C33.3848 8.69004 31.0932 10.4134 29.3332 11.7334C30.0665 12.705 30.7998 13.695 31.5332 14.6667C33.2932 13.3467 35.5848 11.6417 37.3998 10.2667Z" fill="#0B121B"/>
<path d="M7.33317 16.5C5.3165 16.5 3.6665 18.15 3.6665 20.1667V23.8334C3.6665 25.85 5.3165 27.5 7.33317 27.5H9.1665V34.8334H12.8332V27.5H14.6665L23.8332 33V11L14.6665 16.5H7.33317ZM16.5548 19.635L20.1665 17.4717V26.5284L16.5548 24.365L15.6748 23.8334H7.33317V20.1667H15.6748L16.5548 19.635Z" fill="#0B121B"/>
<path d="M28.4165 22C28.4165 19.5617 27.3532 17.3617 25.6665 15.8584V28.1234C27.3532 26.6384 28.4165 24.4384 28.4165 22Z" fill="#0B121B"/>
</svg>
