<svg viewBox="0 0 44 44" xmlns="http://www.w3.org/2000/svg">
    <path d="M21.1181 6.64154H27.4908C28.6863 6.64154 29.8701 6.87701 30.9746 7.33453C32.0792 7.79204 33.0828 8.46262 33.9281 9.30799C34.7735 10.1534 35.4441 11.157 35.9016 12.2615C36.3591 13.366 36.5946 14.5498 36.5946 15.7454V18.1351H32.9531V15.7454C32.9531 14.2967 32.3776 12.9073 31.3532 11.8829C30.3288 10.8586 28.9394 10.2831 27.4908 10.2831H11.1038C9.65515 10.2831 8.26579 10.8586 7.24141 11.8829C6.21703 12.9073 5.64154 14.2967 5.64154 15.7454V28.4908C5.64154 29.9395 6.21703 31.3288 7.24141 32.3532C8.26579 33.3776 9.65515 33.9531 11.1038 33.9531H18.2162V37.5946H11.1038C8.68935 37.5946 6.37375 36.6355 4.66645 34.9282C2.95915 33.2208 2 30.9053 2 28.4908V15.7454C2 13.3309 2.95915 11.0153 4.66645 9.30799C6.37375 7.60069 8.68935 6.64154 11.1038 6.64154H17.4765V4.82077C17.4765 4.33787 17.6684 3.87475 18.0098 3.53329C18.3513 3.19183 18.8144 3 19.2973 3C19.7802 3 20.2433 3.19183 20.5848 3.53329C20.9262 3.87475 21.1181 4.33787 21.1181 4.82077V6.64154Z"/>
    <path d="M20.3784 36.334V40.8378H24.8823L38.1657 27.5544L33.6618 23.0505L20.3784 36.334ZM41.6487 24.0714C42.1171 23.603 42.1171 22.8463 41.6487 22.3779L38.8383 19.5675C38.3699 19.0991 37.6132 19.0991 37.1448 19.5675L34.9469 21.7654L39.4508 26.2693L41.6487 24.0714Z"/>
    <path d="M24.7596 15.7455C24.2767 15.7455 23.8135 15.9373 23.4721 16.2788C23.1306 16.6202 22.9388 17.0833 22.9388 17.5662V21.2078C22.9388 21.6907 23.1306 22.1538 23.4721 22.4952C23.8135 22.8367 24.2767 23.0285 24.7596 23.0285C25.2425 23.0285 25.7056 22.8367 26.047 22.4952C26.3885 22.1538 26.5803 21.6907 26.5803 21.2078V17.5662C26.5803 17.0833 26.3885 16.6202 26.047 16.2788C25.7056 15.9373 25.2425 15.7455 24.7596 15.7455Z"/>
    <path d="M13.835 15.7455C13.3521 15.7455 12.889 15.9373 12.5475 16.2788C12.206 16.6202 12.0142 17.0833 12.0142 17.5662V21.2078C12.0142 21.6907 12.206 22.1538 12.5475 22.4952C12.889 22.8367 13.3521 23.0285 13.835 23.0285C14.3179 23.0285 14.781 22.8367 15.1224 22.4952C15.4639 22.1538 15.6557 21.6907 15.6557 21.2078V17.5662C15.6557 17.0833 15.4639 16.6202 15.1224 16.2788C14.781 15.9373 14.3179 15.7455 13.835 15.7455Z"/>
</svg>
