<svg viewBox="0 0 24 24" xmlns="http://www.w3.org/2000/svg">
    <path d="M16.1342 5.11003H12.9189V4.19137C12.9189 3.94772 12.8221 3.71406 12.6498 3.54177C12.4775 3.36949 12.2439 3.27271 12.0002 3.27271C11.7566 3.27271 11.5229 3.36949 11.3506 3.54177C11.1783 3.71406 11.0816 3.94772 11.0816 4.19137V5.11003H7.86625C6.64803 5.11003 5.47971 5.59396 4.6183 6.45537C3.75688 7.31678 3.27295 8.48511 3.27295 9.70333V16.1339C3.27295 17.3522 3.75688 18.5205 4.6183 19.3819C5.47971 20.2433 6.64803 20.7272 7.86625 20.7272H16.1342C16.7374 20.7272 17.3347 20.6084 17.892 20.3776C18.4493 20.1468 18.9556 19.8084 19.3821 19.3819C19.8087 18.9554 20.147 18.449 20.3778 17.8917C20.6087 17.3344 20.7275 16.7371 20.7275 16.1339V9.70333C20.7275 9.10013 20.6087 8.50283 20.3778 7.94555C20.147 7.38826 19.8087 6.8819 19.3821 6.45537C18.9556 6.02884 18.4493 5.6905 17.892 5.45967C17.3347 5.22883 16.7374 5.11003 16.1342 5.11003ZM18.8902 16.1339C18.8902 16.8649 18.5998 17.5659 18.083 18.0827C17.5661 18.5996 16.8651 18.8899 16.1342 18.8899H7.86625C7.13532 18.8899 6.43432 18.5996 5.91748 18.0827C5.40063 17.5659 5.11027 16.8649 5.11027 16.1339V9.70333C5.11027 8.97239 5.40063 8.2714 5.91748 7.75455C6.43432 7.23771 7.13532 6.94735 7.86625 6.94735H16.1342C16.8651 6.94735 17.5661 7.23771 18.083 7.75455C18.5998 8.2714 18.8902 8.97239 18.8902 9.70333V16.1339Z"/>
    <path d="M14.7562 9.70338C14.5125 9.70338 14.2789 9.80016 14.1066 9.97245C13.9343 10.1447 13.8375 10.3784 13.8375 10.622V12.4594C13.8375 12.703 13.9343 12.9367 14.1066 13.1089C14.2789 13.2812 14.5125 13.378 14.7562 13.378C14.9998 13.378 15.2335 13.2812 15.4058 13.1089C15.5781 12.9367 15.6748 12.703 15.6748 12.4594V10.622C15.6748 10.3784 15.5781 10.1447 15.4058 9.97245C15.2335 9.80016 14.9998 9.70338 14.7562 9.70338Z"/>
    <path d="M9.24423 9.70338C9.00059 9.70338 8.76692 9.80016 8.59464 9.97245C8.42236 10.1447 8.32557 10.3784 8.32557 10.622V12.4594C8.32557 12.703 8.42236 12.9367 8.59464 13.1089C8.76692 13.2812 9.00059 13.378 9.24423 13.378C9.48787 13.378 9.72154 13.2812 9.89382 13.1089C10.0661 12.9367 10.1629 12.703 10.1629 12.4594V10.622C10.1629 10.3784 10.0661 10.1447 9.89382 9.97245C9.72154 9.80016 9.48787 9.70338 9.24423 9.70338Z"/>
</svg>
