<svg viewBox="0 0 17 16" xmlns="http://www.w3.org/2000/svg">
    <path d="M9.35978 10.96L7.51251 9.13459L7.53432 9.11277C8.79978 7.70186 9.7016 6.08004 10.2325 4.36368H12.3634V2.90914H7.27251V1.45459H5.81796V2.90914H0.727051V4.35641H8.85069C8.36341 5.76004 7.59251 7.09095 6.54523 8.25459C5.86887 7.5055 5.30887 6.68368 4.86523 5.81823H3.41069C3.9416 7.00368 4.66887 8.12368 5.57796 9.13459L1.87614 12.7855L2.90887 13.8182L6.54523 10.1819L8.80705 12.4437L9.35978 10.96ZM13.4543 7.27277H11.9998L8.72705 16H10.1816L10.9961 13.8182H14.4507L15.2725 16H16.7271L13.4543 7.27277ZM11.5489 12.3637L12.7271 9.21459L13.9052 12.3637H11.5489Z"/>
</svg>
