<svg width="44" height="44" viewBox="0 0 44 44" fill="none" xmlns="http://www.w3.org/2000/svg">
<path d="M28.8842 26.1342H27.4359L26.9225 25.6392C28.7192 23.5492 29.8009 20.8358 29.8009 17.8842C29.8009 11.3025 24.4659 5.9675 17.8842 5.9675C11.3025 5.9675 5.96753 11.3025 5.96753 17.8842C5.96753 24.4658 11.3025 29.8008 17.8842 29.8008C20.8359 29.8008 23.5492 28.7192 25.6392 26.9225L26.1342 27.4358V28.8842L35.3009 38.0325L38.0325 35.3008L28.8842 26.1342ZM17.8842 26.1342C13.3192 26.1342 9.6342 22.4492 9.6342 17.8842C9.6342 13.3192 13.3192 9.63417 17.8842 9.63417C22.4492 9.63417 26.1342 13.3192 26.1342 17.8842C26.1342 22.4492 22.4492 26.1342 17.8842 26.1342Z" fill="#0B121B"/>
</svg>
