<svg width="24" height="24" viewBox="0 0 24 24" fill="none" xmlns="http://www.w3.org/2000/svg">
    <path id="Vector" fill-rule="evenodd" clip-rule="evenodd" d="M15.7687 4.60889C17.85 4.60889 19.5373 6.27566 19.5373 8.33173V15.7774C19.5373 17.5695 18.2893 19.3012 15.7932 20.9725C16.3014 18.7501 16.1432 17.6388 15.3186 17.6388H8.23152C6.15018 17.6388 4.46292 15.9721 4.46292 13.916V8.33173C4.46292 6.27566 6.15018 4.60889 8.23152 4.60889H15.7687ZM15.7687 8.33173H8.23152C7.71118 8.33173 7.28937 8.74842 7.28937 9.26244V12.0546C7.28937 12.5686 7.71118 12.9853 8.23152 12.9853H15.7687C16.289 12.9853 16.7109 12.5686 16.7109 12.0546V9.26244C16.7109 8.74842 16.289 8.33173 15.7687 8.33173ZM10.1158 9.26244C10.6361 9.26244 11.058 9.67913 11.058 10.1932V11.1239C11.058 11.6379 10.6361 12.0546 10.1158 12.0546C9.59548 12.0546 9.17366 11.6379 9.17366 11.1239V10.1932C9.17366 9.67913 9.59548 9.26244 10.1158 9.26244ZM13.8844 9.26244C14.4047 9.26244 14.8266 9.67913 14.8266 10.1932V11.1239C14.8266 11.6379 14.4047 12.0546 13.8844 12.0546C13.3641 12.0546 12.9423 11.6379 12.9423 11.1239V10.1932C12.9423 9.67913 13.3641 9.26244 13.8844 9.26244ZM2.57862 8.33173H3.52077V13.916H2.57862C2.05829 13.916 1.63647 13.4993 1.63647 12.9853V9.26244C1.63647 8.74842 2.05829 8.33173 2.57862 8.33173ZM20.4794 8.33173H21.4216C21.9419 8.33173 22.3637 8.74842 22.3637 9.26244V12.9853C22.3637 13.4993 21.9419 13.916 21.4216 13.916H20.4794V8.33173Z" fill="#3978FC"/>
</svg>
